# xmcd
#
# Track frame offsets: 
#        150
#        15708
#        33409
#        55389
#        67092
#        83145
#        109702
#        131127
#        147555
#        170732
#
# Disc length: 2497 seconds
#
# Revision: 0
# Processed by: cddbd v1.5.2PL0 Copyright (c) Steve Scherf et al.
# Submitted via: ExactAudioCopy v0.99pb5
#
DISCID=9409bf0a
DTITLE=John F. Klaver - Coming back for more
DYEAR=2010
DGENRE=Blues
TTITLE0=Gonna leave this place
TTITLE1=Not for me
TTITLE2=Make some dough
TTITLE3=Move song
TTITLE4=Scary Mary
TTITLE5=Listen and Hear
TTITLE6=Lost but found
TTITLE7=Lateral climb
TTITLE8=Get out of my life
TTITLE9=Coming back for more
EXTD=
EXTT0=
EXTT1=
EXTT2=
EXTT3=
EXTT4=
EXTT5=
EXTT6=
EXTT7=
EXTT8=
EXTT9=
PLAYORDER=
